<svg width="960" height="327" viewBox="0 0 960 327" fill="none" xmlns="http://www.w3.org/2000/svg">
<g clip-path="url(#clip0)">
<path d="M68.2 205.7H26.5V225.3H68.1H87.9C87.9 225.3 101.1 208.9 125.1 208.9C149.1 208.9 163.3 225.3 163.3 225.3H338.1V205.7H68.2Z" fill="#F19733"/>
<path d="M897.6 74.3003C895.7 72.5003 893.2 71.2003 890.6 70.7003L875.5 67.1003L867.9 65.3003L842.6 99.7003L842 99.5003C840.4 106.2 839.2 114 838.8 122.7C838.7 124.3 838.7 125.9 838.7 127.6C838.7 131.7 838.8 135.7 839 139.6C840.4 166.7 846.1 189.1 849.2 194.9C849.2 194.9 850.8 195.1 853.8 195.3C853.8 195.3 880.4 275.3 877.9 299.4C877.9 299.4 883.1 301.9 891.2 299.4C895.6 282.9 905.5 248.8 894.9 235.9L901.4 191.4L904.4 190V184L904.3 177.2H878.9L854.1 169V104.3H878.9V103.3L898.5 104C900.3 105 903.9 106.6 903.9 106.6L904.9 107.4C900 114.1 904.9 127.9 904.9 127.9L913.5 157.6H921.8L923.5 101.3L897.6 74.3003Z" fill="#F19733"/>
<path d="M676.5 29.4003L676.4 31.2003C676.4 31.2003 676.4 31.2003 676.4 31.3003C664.6 32.3003 650 33.3003 638.8 32.8003C638.8 32.8003 638.3 12.4003 655.8 11.6003C672.8 10.7003 676.5 29.4003 676.5 29.4003Z" fill="#F19733"/>
<path d="M688.5 160.7C688.4 157.5 688.5 145.8 688.1 134.5L675.6 135L659.4 106.4C659.5 106.4 675.9 99.2001 675.9 99.2001L683.8 118.5L683.9 118.7C684.8 118.4 685.7 118.1 686.8 117.9L686.7 117.4C684.1 105.7 673 78.8001 665.2 69.0001C662.2 69.7001 659.2 69.7001 656.8 69.5001C653.7 69.2001 651.5 68.6001 651.3 68.7001C651.3 68.7001 637.8 83.7001 643.8 101.1C649.8 118.5 653.3 145.4 653.3 145.4C653.3 145.4 650.3 153.1 648.3 161.4C647.4 164.9 646.7 168.4 646.4 171.6C645.5 182.2 643.2 204.5 647.1 223.9C651 243.3 646.9 246.6 646 254.1C644.7 265.3 652.4 286.8 657.1 304.1C657.1 304.1 664.5 307.4 671.5 304C671.5 304 669.7 254.6 675.8 237.2C681.9 219.7 689.8 188.8 688.5 160.7Z" fill="#F19733"/>
<path d="M507.6 225.3C517.5 233.3 523.8 245.6 523.8 259.3C523.8 283.5 504.2 303.201 479.9 303.201C455.6 303.201 436.1 283.6 436.1 259.3C436.1 245.6 442.4 233.3 452.3 225.3C459.9 219.2 469.5 215.5 480 215.5C490.5 215.5 500.1 219.2 507.6 225.3ZM499.9 259.3C499.9 248.3 491 239.4 480 239.4C469 239.4 460.1 248.3 460.1 259.3C460.1 270.3 469 279.201 480 279.201C491 279.201 499.9 270.3 499.9 259.3Z" fill="#F19733"/>
<path d="M576.1 183.7C542.1 186.9 530.3 154.8 530.3 154.8H562.8C553.5 140.2 539.8 125.4 519.5 111.2C497.3 95.7005 493.7 77.8005 450 34.9005C429.4 14.6005 358.1 5.50049 358.1 5.50049V225.3H376.8H440C440 225.3 457.5 203.9 486.4 208.9C502.3 211.5 510 216.5 520.1 225.3H581.7C581.7 213.9 581 199.5 576.1 183.7ZM384.7 120.5V49.9005C384.7 49.9005 425.3 58.3005 436.2 64.9005C447.1 71.5005 480 114.5 480 120.6L384.7 120.5Z" fill="#F19733"/>
<path d="M125.1 215.5C149.3 215.5 169 235.1 169 259.4C169 283.7 149.4 303.3 125.1 303.3C100.8 303.3 81.3 283.7 81.3 259.4C81.3 235.1 100.9 215.5 125.1 215.5ZM145 259.3C145 248.3 136.1 239.4 125.1 239.4C114.1 239.4 105.2 248.3 105.2 259.3C105.2 270.3 114.1 279.201 125.1 279.201C136.1 279.201 145 270.3 145 259.3Z" fill="#F19733"/>
<path d="M69.8 5.50029V3.80029H28.1V116.5H39.3V67.4003H68.2V69.1003V118.2V198.2H339.9V5.50029H69.8Z" fill="#F19733"/>
<path d="M804.1 112.6V123.1L834.8 141.1L833.7 122.9L804.1 112.6Z" fill="#F19733"/>
<path d="M158.3 219.8C157.5 219.8 156.8 220.5 156.8 221.3C156.8 222.1 157.5 222.8 158.3 222.8H334.9C335.7 222.8 336.4 222.1 336.4 221.3V201.7C336.4 200.9 335.7 200.2 334.9 200.2H21.5C20.7 200.2 20 200.9 20 201.7V221.3C20 222.1 20.7 222.8 21.5 222.8H82.9C83.7 222.8 84.4 222.1 84.4 221.3C84.4 220.5 83.7 219.8 82.9 219.8H64.7V203.2H333.4V219.8H158.3ZM61.7 219.8H23V203.2H61.7V219.8Z" fill="#3A3636"/>
<path d="M353.2 222.8H371.8H371.9H435C435.4 222.8 435.9 222.6 436.2 222.3C436.4 222.1 453.5 201.6 481.2 206.4C481.6 206.5 482.1 206.4 482.4 206.1C482.7 205.8 482.9 205.4 482.9 205V118.5C482.9 108.8 479.7 99.6001 473.6 91.8001C460.8 75.7001 443.2 55.4001 431.7 50.3001C418.4 44.3001 374 34.7001 372.1 34.3001C371.7 34.2001 371.2 34.3001 370.8 34.6001C370.4 34.9001 370.2 35.3001 370.2 35.8001V220H354.6V3.20013C365.5 4.70013 425.7 14.0001 443.9 32.0001C465.6 53.4001 477.2 68.3001 486.5 80.3001C495.6 92.1001 502.2 100.6 513.6 108.5C531 120.7 544.9 134.4 555 149.4H525.2C524.7 149.4 524.3 149.6 524 150C523.7 150.4 523.7 150.9 523.8 151.4C523.9 151.7 535.2 181.5 566.4 181.5C567.6 181.5 568.9 181.4 570.2 181.3C574.6 196.2 575.3 209.6 575.4 219.8H515.3C514.5 219.8 513.8 220.5 513.8 221.3C513.8 222.1 514.5 222.8 515.3 222.8H576.9C577.7 222.8 578.4 222.1 578.4 221.3C578.4 210.4 577.8 195.8 572.7 179.2C569.4 168.6 564.9 159 559.1 149.9C548.7 133.7 534 118.9 515.4 105.9C504.4 98.3001 498 89.9001 489 78.4001C479.6 66.3001 468 51.3001 446.1 29.8001C425.4 9.40013 356.3 0.400134 353.3 0.000134053C352.9 -0.0998659 352.4 0.100134 352.1 0.400134C351.8 0.700134 351.6 1.10013 351.6 1.50013V221.3C351.7 222.1 352.4 222.8 353.2 222.8ZM373.3 37.5001C381.9 39.4001 419 47.7001 430.5 52.9001C439 56.7001 453.5 71.1001 471.2 93.6001C476.9 100.8 479.9 109.4 479.9 118.5V203.2C454.1 199.6 437.3 216.5 434.3 219.9H373.3V37.5001ZM527.6 152.3H557.1C562.2 160.4 566.2 169 569.3 178.3C542.5 179.9 530.7 159 527.6 152.3Z" fill="#3A3636"/>
<path d="M76.2 230.8C77 230.8 77.7 230.1 77.7 229.3C77.7 228.5 77 227.8 76.2 227.8H11.6C10.8 227.8 10.1 228.5 10.1 229.3V258.7C10.1 259.5 10.8 260.2 11.6 260.2H69.2C70 260.2 70.7 259.5 70.7 258.7C70.7 257.9 70 257.2 69.2 257.2H13.1V230.8H76.2V230.8Z" fill="#3A3636"/>
<path d="M430.9 229.3C430.9 228.5 430.2 227.8 429.4 227.8H163.9C163.1 227.8 162.4 228.5 162.4 229.3C162.4 230.1 163.1 230.8 163.9 230.8H429.4C430.2 230.8 430.9 230.1 430.9 229.3Z" fill="#3A3636"/>
<path d="M515.7 229.3C515.7 230.1 516.4 230.8 517.2 230.8H585.5V257.2H530.7C529.9 257.2 529.2 257.9 529.2 258.7C529.2 259.5 529.9 260.2 530.7 260.2H587C587.8 260.2 588.5 259.5 588.5 258.7V229.3C588.5 228.5 587.8 227.8 587 227.8H517.2C516.4 227.8 515.7 228.5 515.7 229.3Z" fill="#3A3636"/>
<path d="M421 260.2C421.8 260.2 422.5 259.5 422.5 258.7C422.5 257.9 421.8 257.2 421 257.2H171.3C170.5 257.2 169.8 257.9 169.8 258.7C169.8 259.5 170.5 260.2 171.3 260.2H421Z" fill="#3A3636"/>
<path d="M141.5 255.3C141.5 243.5 131.9 233.9 120.1 233.9C108.3 233.9 98.7 243.5 98.7 255.3C98.7 267.1 108.3 276.7 120.1 276.7C131.9 276.7 141.5 267.1 141.5 255.3ZM101.7 255.3C101.7 245.2 110 236.9 120.1 236.9C130.2 236.9 138.5 245.2 138.5 255.3C138.5 265.4 130.2 273.7 120.1 273.7C110 273.7 101.7 265.4 101.7 255.3Z" fill="#3A3636"/>
<path d="M475 233.9C463.2 233.9 453.6 243.5 453.6 255.3C453.6 267.1 463.2 276.7 475 276.7C486.8 276.7 496.4 267.1 496.4 255.3C496.4 243.5 486.8 233.9 475 233.9ZM475 273.7C464.9 273.7 456.6 265.4 456.6 255.3C456.6 245.2 464.9 236.9 475 236.9C485.1 236.9 493.4 245.2 493.4 255.3C493.4 265.4 485.1 273.7 475 273.7Z" fill="#3A3636"/>
<path d="M4.70001 195.7H27.6H334.9C335.7 195.7 336.4 195 336.4 194.2V1.5C336.4 0.7 335.7 0 334.9 0H21.5C20.7 0 20 0.7 20 1.5V112.7H4.70001C3.90001 112.7 3.20001 113.4 3.20001 114.2V194.2C3.20001 195 3.90001 195.7 4.70001 195.7ZM61.7 113C61.4 112.8 61.1 112.7 60.8 112.7H34.2V66.6H61.7V113ZM333.4 192.7H64.7V3H333.4V192.7ZM23 3H61.7V63.6H32.7C31.9 63.6 31.2 64.3 31.2 65.1V112.7H23V3ZM6.20001 115.7H60.8C61.1 115.7 61.4 115.6 61.7 115.4V192.7H27.6H6.20001V115.7Z" fill="#3A3636"/>
<path d="M379.7 121.8C378.9 121.8 378.2 122.5 378.2 123.3V147.2C378.2 148 378.9 148.7 379.7 148.7C380.5 148.7 381.2 148 381.2 147.2V123.3C381.2 122.5 380.5 121.8 379.7 121.8Z" fill="#3A3636"/>
<path d="M379.7 118H475C475.8 118 476.5 117.3 476.5 116.5C476.5 109.5 442.4 65.9003 432 59.6003C421 52.9003 381.7 44.8003 380 44.4003C379.6 44.3003 379.1 44.4003 378.7 44.7003C378.4 45.0003 378.1 45.4003 378.1 45.9003V116.5C378.2 117.3 378.9 118 379.7 118ZM381.2 47.8003C389.2 49.5003 421.2 56.6003 430.4 62.2003C440.9 68.5003 469.1 106.1 473 115H381.1L381.2 47.8003Z" fill="#3A3636"/>
<path d="M654.9 47.2003C655 47.2003 655.1 47.2003 655.2 47.2003C655.9 47.2003 656.5 46.7003 656.7 46.0003C656.9 45.2003 656.3 44.4003 655.5 44.2003C654 43.9003 650.9 42.8003 650.6 41.2003C650.3 39.9003 650.5 38.5003 651.1 37.7003C651.6 37.1003 652.3 36.8003 653.3 36.8003C654.1 36.8003 654.8 36.1003 654.8 35.3003C654.8 34.5003 654.1 33.8003 653.3 33.8003C650.9 33.8003 649.5 34.9003 648.7 35.9003C647.5 37.5003 647.1 39.7003 647.6 42.0003C648.5 45.8003 654.3 47.0003 654.9 47.2003Z" fill="#3A3636"/>
<path d="M960 108.4C960 108.2 959.9 108.1 959.8 107.9C959.8 107.9 959.8 107.9 959.8 107.8C959.7 107.7 959.6 107.6 959.5 107.5C959.5 107.5 959.5 107.5 959.4 107.5C959.3 107.4 959.1 107.3 959 107.3L934.2 99.1C934 99 933.9 99 933.7 99H921.7C920.9 99 920.2 99.7 920.2 100.5C920.2 101.3 920.9 102 921.7 102H933.5L949.2 107.2H924.8C924 107.2 923.3 107.9 923.3 108.7C923.3 109.5 924 110.2 924.8 110.2H957V171.8H921.7C920.9 171.8 920.2 172.5 920.2 173.3C920.2 174.1 920.9 174.8 921.7 174.8H958.5C959.3 174.8 960 174.1 960 173.3V108.7C960 108.6 960 108.5 960 108.4Z" fill="#3A3636"/>
<path d="M791.2 105.9C791.4 106 791.6 106 791.8 106C792.4 106 792.9 105.7 793.2 105.1C796.7 96.6001 798.3 93.1001 798.6 92.6001C799 91.9001 798.9 91.0001 798.3 90.6001C797.6 90.1001 796.7 90.2001 796.2 90.9001C796 91.1001 795.7 91.6001 790.5 104C790.1 104.7 790.5 105.6 791.2 105.9Z" fill="#3A3636"/>
<path d="M767.6 81.0002C768.1 82.2002 769.1 84.8002 771.4 90.6002C771.6 91.2002 772.2 91.5002 772.8 91.5002C773.4 91.5002 774 91.1002 774.2 90.6002C775.1 88.3002 777.2 82.9002 778 81.0002C785.4 78.7002 790.6 71.8002 790.6 64.0002C790.6 54.2002 782.6 46.2002 772.8 46.2002C768.7 46.2002 764.8 47.6002 761.6 50.1002C757.4 53.5002 755 58.5002 755 64.0002C755 71.8002 760.1 78.7002 767.6 81.0002ZM763.4 52.5002C766.1 50.4002 769.4 49.2002 772.8 49.2002C781 49.2002 787.6 55.8002 787.6 64.0002C787.6 70.8002 783 76.7002 776.5 78.3002C776 78.4002 775.7 78.7002 775.5 79.2002C775.3 79.6002 773.9 83.2002 772.8 86.0002C771.5 82.9002 770.3 79.8002 770.1 79.3002C770 78.8002 769.6 78.4002 769.1 78.3002C762.6 76.5002 758 70.6002 758 63.9002C758 59.5002 760 55.3002 763.4 52.5002Z" fill="#3A3636"/>
<path d="M768.4 71.6999C768.7 71.9999 769.1 72.0999 769.5 72.0999C769.9 72.0999 770.3 71.8999 770.6 71.6999L782.6 59.6999C783.2 59.0999 783.2 58.1999 782.6 57.5999C782 56.9999 781.1 56.9999 780.5 57.5999L769.6 68.4999L765 63.8999C764.4 63.2999 763.5 63.2999 762.9 63.8999C762.3 64.4999 762.3 65.3999 762.9 65.9999L768.4 71.6999Z" fill="#3A3636"/>
<path d="M190.4 297.7H136C153.1 291.2 165.4 274.7 165.4 255.3C165.4 230.3 145.1 210 120.1 210C95.1 210 74.8 230.3 74.8 255.3C74.8 274.7 87 291.2 104.2 297.7H50.7C49.9 297.7 49.2 298.4 49.2 299.2C49.2 300 49.9 300.7 50.7 300.7H190.4C191.2 300.7 191.9 300 191.9 299.2C191.9 298.4 191.2 297.7 190.4 297.7ZM77.8 255.3C77.8 232 96.8 213 120.1 213C143.4 213 162.4 232 162.4 255.3C162.4 278.6 143.4 297.6 120.1 297.6C96.8 297.6 77.8 278.6 77.8 255.3Z" fill="#3A3636"/>
<path d="M544.8 297.7H491.1C508.2 291.2 520.3 274.6 520.3 255.3C520.3 241.6 514.2 228.7 503.5 220.1C495.5 213.6 485.3 210 475 210C464.5 210 454.6 213.5 446.4 220.1C435.8 228.7 429.6 241.5 429.6 255.3C429.6 274.6 441.7 291.2 458.7 297.7H405.1C404.3 297.7 403.6 298.4 403.6 299.2C403.6 300 404.3 300.7 405.1 300.7H544.8C545.6 300.7 546.3 300 546.3 299.2C546.3 298.4 545.6 297.7 544.8 297.7ZM432.6 255.3C432.6 242.5 438.3 230.5 448.2 222.5C455.9 216.3 465.2 213 475 213C484.7 213 494.1 216.4 501.7 222.5C511.6 230.5 517.3 242.5 517.3 255.3C517.3 278.7 498.3 297.7 474.9 297.7C451.6 297.7 432.6 278.7 432.6 255.3Z" fill="#3A3636"/>
<path d="M730.3 323.8H706.7C707.8 322.9 708.6 321.8 709 320.6C709.3 319.7 709.2 318.8 708.8 318.1C707.7 316.1 704.3 315.3 700.4 314.4C699.1 314.1 697.9 313.8 696.7 313.5C693.2 312.5 690.2 311.5 686.2 309.3C686.1 309.1 685.9 308.9 685.7 308.8C685.4 308.6 685.2 308.6 684.9 308.6C684 308.1 683.1 307.6 682.2 307C682 306.8 681.7 306.6 681.3 306.4C681.2 306.3 681.1 306.3 681 306.2C680.9 306 680.7 305.8 680.5 305.7C680.3 305.6 680 305.5 679.8 305.5C678.5 304.7 677 303.9 675.4 303.1C675.4 303.1 675.4 303.1 675.4 303L675.3 302.9L675.2 302.8L675.1 302.7C675.1 302.7 675 302.7 675 302.6C672.3 301.2 669.5 299.8 668.2 299.1C668 292.4 667 249.4 672.4 233.7C679.3 213.9 686.3 183.3 685.2 156.7C685.2 155.7 685.2 153.7 685.1 151.1C685.1 146.2 685 139.1 684.8 132L731 130.1L752.2 138.2C752.4 138.3 752.5 138.3 752.7 138.3L761.9 138.5C762.4 138.5 762.8 138.3 763 138L765.6 139.8C765.9 140 766.2 140.1 766.5 140.1L823 139.7C823.7 139.7 824.3 139.2 824.4 138.6C824.6 137.9 824.3 137.3 823.7 136.9L795.8 120.9C795.1 120.5 794.2 120.7 793.8 121.5C793.4 122.2 793.6 123.1 794.4 123.5L817.5 136.7L767 137.1L751 125.6C756.3 126.1 761.9 125.5 763.2 124.5C763.8 124 764 123.4 763.9 122.7C763.6 121.6 762.4 121.2 761.2 120.9H780.3C781.1 120.9 781.8 120.2 781.8 119.4C781.8 118.6 781.1 117.9 780.3 117.9H751.3C747.2 116.3 744.1 114.8 744 114.8C743.6 114.6 743.2 114.6 742.8 114.7L727.3 120.7C725.8 120.3 719.8 118.9 702.2 114C694.8 111.9 688.3 111.4 683 112.2C680.1 100.3 669.7 74.9002 661.8 64.6002L661.6 55.2002C665 56.0002 671.7 56.8002 673.9 52.0002C674.6 50.4002 674.9 47.9002 674.8 44.3002L678.9 41.7002C679.3 41.5002 679.6 41.0002 679.6 40.6002C679.6 40.1002 679.5 39.7002 679.1 39.4002L674 34.6002C673.7 32.1002 673.4 30.0002 673.2 28.7002C684.1 27.7002 692.2 26.7002 692.3 26.7002C693.1 26.6002 693.7 25.8002 693.6 25.0002C693.5 24.2002 692.7 23.6002 691.9 23.7002C691.8 23.7002 683.8 24.7002 673 25.7002C673 25.6002 673 25.4002 673 25.3002C673 25.1002 668.9 5.30019 650.8 6.20019C633.1 7.00019 632.4 26.3002 632.4 28.7002C632.1 29.9002 630.7 35.2002 632.5 39.4002C633.1 40.8002 633.5 42.2002 633.8 43.3002C634.4 45.3002 634.8 46.6002 635.9 47.2002C636.3 47.4002 637 47.5002 637.8 47.2002C638.2 47.0002 639 47.7002 639.4 48.2002L639.5 48.3002C641.4 50.3002 643.7 52.2002 644.7 53.1002V64.3002C642.4 67.0002 631.6 81.2002 637.3 97.7002C642.8 113.7 646.2 138 646.7 141.3C646.1 142.9 643.6 149.7 641.8 157.1C640.8 161 640.1 164.5 639.9 167.5L639.7 169.5C638.7 180.8 636.9 201.7 640.6 220.2C643.4 234.2 642 239.6 640.7 244.4C640.2 246.2 639.8 247.9 639.5 250C638.5 259 642.9 273.9 647.1 288.3C648.4 292.6 649.6 296.7 650.6 300.6C651.5 304 651.1 308.7 650.8 312.9C650.6 315.8 650.4 318.6 650.6 320.8C650.7 321.5 651 322.7 651.8 323.8H622.2C621.4 323.8 620.7 324.5 620.7 325.3C620.7 326.1 621.4 326.8 622.2 326.8H688.4C688.9 326.8 689.4 326.9 689.9 326.9C690.3 326.9 690.8 326.9 691.2 326.9C691.7 326.9 692.3 327 692.8 327C694.5 327 696 326.9 697.4 326.8H730.4C731.2 326.8 731.9 326.1 731.9 325.3C731.9 324.5 731.1 323.8 730.3 323.8ZM701.3 116.8C722.4 122.6 726.8 123.6 727 123.6C727.3 123.7 727.6 123.6 727.9 123.5L743.2 117.5C745 118.4 750.6 120.9 756.2 122.5C752.4 122.6 747.5 122.3 744.5 120.7C743.8 120.3 742.9 120.6 742.5 121.2C742.1 121.9 742.3 122.7 742.9 123.2L759.5 135.1L753 135L731.7 126.9C731.5 126.8 731.3 126.8 731.1 126.8L683.1 128.8L671.5 129.3L656.6 102.9C658.6 102.1 662.4 100.4 670.2 97.0002L677 113.7C672.9 115.5 671.2 118 671.1 118.1C670.6 118.8 670.8 119.7 671.5 120.2C672.2 120.7 673.1 120.5 673.6 119.8C673.6 119.8 675.3 117.5 679.3 116C680.2 115.7 681 115.4 682 115.2C687.1 114.2 693.8 114.8 701.3 116.8ZM655 100.5L646.4 85.4002C644 81.1002 644.3 75.9002 647.2 72.5002C648.5 70.9002 650 70.1002 651.6 70.1002C655.9 70.1002 660.7 75.8002 662.3 78.1002L669 94.5002C664 96.5002 657.7 99.3002 655 100.5ZM674.7 40.9002C674.7 40.3002 674.6 39.8002 674.6 39.2002L675.7 40.3002L674.7 40.9002ZM650.9 9.10019C666.4 8.40019 669.9 25.1002 670.1 25.8002V25.9002C660.1 26.7002 646.3 27.7002 635.4 27.3002C635.6 22.9002 637.4 9.70019 650.9 9.10019ZM641.7 46.2002C640.9 45.2002 639.1 43.7002 637.2 44.1002C637 43.7002 636.8 43.0002 636.6 42.4002C636.3 41.2002 635.8 39.7002 635.1 38.1002C634 35.5002 634.5 32.0002 634.9 30.3002C636.6 30.4002 638.4 30.4002 640.2 30.4002C650.2 30.4002 661.6 29.6002 670.2 28.9002C670.4 30.4002 670.8 32.8002 671.1 35.5002C671.4 37.8002 671.7 40.8002 671.8 43.6002C671.9 47.0002 671.7 49.6002 671.1 50.8002C669.6 54.0002 662.7 52.6002 660.4 51.8002C659.9 51.6002 659.4 51.7002 659 52.0002C658.6 52.3002 658.4 52.7002 658.4 53.2002L658.6 63.7002C656.5 64.1002 654.3 64.1002 651.8 63.9002C650 63.8002 648.5 63.5002 647.6 63.3002V52.3002C647.6 51.8002 647.4 51.4002 647 51.1002C647.1 51.1002 644.1 48.7002 641.7 46.2002ZM649.7 141.3C649.7 141 646.1 114 640.1 96.7002C635.1 82.1002 644.6 69.1002 646.9 66.3002C647.9 66.5002 649.6 66.8002 651.7 67.0002C652.7 67.1002 653.6 67.1002 654.5 67.1002C656.3 67.1002 657.9 66.9002 659.5 66.7002C667 76.7002 677.2 101.4 680 112.8C679.9 112.8 679.8 112.8 679.8 112.9L665 76.7002C665 76.6002 664.9 76.5002 664.9 76.4002C664.6 76.0002 658.5 66.9002 651.7 66.9002C649.1 66.9002 646.9 68.1002 644.9 70.4002C641.2 74.8002 640.8 81.3002 643.9 86.7002L652.9 102.5C653 102.8 653.1 103.1 653.4 103.3L669.4 131.5C669.7 132 670.2 132.3 670.8 132.3L681.8 131.8C682 138.9 682.1 146 682.1 150.8C682.1 152.6 682.1 154.2 682.1 155.3C663.7 161.6 650 157.5 645.5 156.1C645.4 156.1 645.3 156 645.2 156C647.1 148.5 649.7 141.8 649.8 141.7C649.7 141.8 649.7 141.6 649.7 141.3ZM649.9 287.5C645.7 273.4 641.4 258.8 642.4 250.4C642.6 248.6 643.1 247 643.5 245.3C644.9 240.2 646.4 234.5 643.5 219.8C639.9 201.8 641.7 181.1 642.6 170L642.8 168C643 165.5 643.6 162.6 644.3 159.4C644.4 159.4 644.4 159.4 644.5 159.5C647.3 160.4 653.5 162.2 662.2 162.2C667.9 162.2 674.6 161.4 682.1 158.9C682.8 184.7 676.1 213.8 669.4 232.8C663.7 249.1 664.8 291.8 665 299.1C660 301.1 654.8 299.6 653.2 299C652.2 295.2 651 291.3 649.9 287.5ZM682.8 322.9C680.8 322.4 678.9 322 676.1 322C672.1 322 669.3 322.3 666.6 322.7C663.9 323 661.4 323.3 657.7 323.3C654.2 323.3 653.6 321.7 653.5 320.5C653.3 318.6 653.5 316 653.7 313.2C654 309.7 654.3 305.8 653.9 302.4C655.3 302.8 657.3 303.2 659.5 303.2C661.7 303.2 664 302.8 666.4 301.8C667.4 302.3 669.6 303.4 671.9 304.6L668.6 310C668.2 310.7 668.4 311.6 669.1 312.1C669.3 312.2 669.6 312.3 669.9 312.3C670.4 312.3 670.9 312 671.2 311.6L674.5 306.2C675.5 306.7 676.5 307.2 677.4 307.7L674.5 312.4C674.1 313.1 674.3 314 675 314.5C675.2 314.6 675.5 314.7 675.8 314.7C676.3 314.7 676.8 314.4 677.1 314L680 309.2C680.1 309.3 680.2 309.3 680.3 309.4C680.3 309.4 680.4 309.4 680.4 309.5C681.2 310 681.9 310.4 682.6 310.8L680 315.1C679.6 315.8 679.8 316.7 680.5 317.2C680.7 317.3 681 317.4 681.3 317.4C681.8 317.4 682.3 317.1 682.6 316.7L685.2 312.3C689.2 314.4 692.3 315.5 695.8 316.5C697.1 316.9 698.4 317.2 699.7 317.5C701.9 318 705.9 318.9 706.1 319.7C706.1 319.7 706.1 319.7 706.1 319.8C705.4 322.1 702.3 323.5 697.2 324H688.4C686 323.6 684.4 323.2 682.8 322.9Z" fill="#3A3636"/>
<path d="M919.1 323.8H885.3C885.6 323.4 885.7 323 885.7 322.7C886.5 316.7 886.2 313.1 885.8 310C885.5 307.1 885.3 304.8 886.1 301.1C886.4 299.8 886.8 298.2 887.3 296.5C887.3 296.5 887.3 296.4 887.4 296.4C887.4 296.4 887.4 296.4 887.4 296.3C887.5 296.2 887.5 296 887.6 295.9L888.3 293.3C893.2 275.1 901.4 244.7 891.4 231.6L897.8 187.6C897.9 187.1 897.7 186.6 897.3 186.3C896.9 186 896.4 185.8 896 185.9C873.3 190.6 855.5 190.2 848.8 189.8C847.1 189.7 845.8 189.6 845.1 189.5C842.3 183.4 836.8 162.2 835.4 135.5C835.2 131.6 835.1 127.6 835.1 123.5C835.1 121.8 835.1 120.2 835.2 118.7C835.5 111.2 836.5 103.8 838.1 96.8999C838.2 96.8999 838.3 96.7999 838.3 96.7999L859.8 79.5999C860.1 79.3999 860.3 79.0999 860.3 78.6999L861 75.1999L866 74.6999C866.5 74.5999 867 74.2999 867.2 73.7999L871.2 64.7999L885.1 68.0999C887.5 68.5999 889.7 69.6999 891.3 71.2999L916.8 97.8999L915.2 152.1H909.5L901.2 123.5C899.9 119.8 897.4 109.3 901 104.4C901.9 103.2 903.1 102.4 904.5 101.9C905.3 101.6 905.7 100.8 905.4 99.9999C905.1 99.1999 904.3 98.7999 903.5 99.0999C902.1 99.5999 900.8 100.4 899.7 101.4C899.6 101.3 899.5 101.3 899.5 101.3C894.4 98.8999 880.8 92.3999 879.4 91.5999C878.7 91.1999 877.9 91.3999 877.4 91.9999L872.7 98.4999C872.6 98.5999 872.5 98.7999 872.5 98.9999H849C848.8 98.9999 848.7 98.9999 848.5 99.0999C848.5 99.0999 848.5 99.0999 848.4 99.0999C848.3 99.1999 848.1 99.1999 848 99.2999C848 99.2999 848 99.2999 847.9 99.2999C847.8 99.3999 847.7 99.4999 847.6 99.5999C847.6 99.5999 847.6 99.5999 847.6 99.6999C847.5 99.7999 847.5 99.9999 847.4 100.1C847.4 100.2 847.4 100.2 847.4 100.3V165C847.4 165.6 847.8 166.2 848.4 166.4L873.2 174.5C873.3 174.5 873.5 174.6 873.6 174.6H899C899.8 174.6 900.5 173.9 900.5 173.1C900.5 172.3 899.8 171.6 899 171.6H875.1V110H894C894.8 110 895.5 109.3 895.5 108.5C895.5 107.7 894.8 107 894 107H873.8L858.1 101.8H885.3C886.1 101.8 886.8 101.1 886.8 100.3C886.8 99.4999 886.1 98.7999 885.3 98.7999H875.8L878.8 94.5999C883 96.6999 895.4 102.6 897.6 103.7C893.6 111.1 897.9 123.8 898.1 124.3L906.7 154L908.6 160.4L905.8 172.3L898.2 178.8C897.7 179.2 897.5 179.9 897.8 180.5C898.1 181.1 898.6 181.5 899.2 181.5H917C917.4 181.5 917.8 181.3 918.1 181C918.4 180.7 918.5 180.3 918.5 179.9L918 155V153.4L919.7 97.0999C919.7 96.6999 919.6 96.2999 919.3 95.9999L893.4 68.8999C891.4 66.8999 888.7 65.4999 885.7 64.8999L863.6 59.8999L858.1 54.9999L857.4 54.2999C859.8 52.1999 865.4 46.5999 868.1 36.9999C871.6 24.6999 855.3 16.3999 853.4 15.4999C850 12.8999 846.3 11.8999 842.4 12.3999C835.2 13.3999 829.8 19.5999 828.4 21.1999C826.9 21.6999 822.4 23.3999 818.9 27.7999C812 36.2999 821.5 48.9999 823.3 51.1999C823.5 51.9999 823.8 52.7999 824.1 53.7999L824.9 63.0999C824.9 63.5999 825.2 63.9999 825.6 64.2999C825.8 64.3999 826.1 64.4999 826.4 64.4999C826.6 64.4999 826.8 64.4999 827 64.3999L829.6 63.1999C831.4 65.4999 833.8 67.7999 836.9 70.1999C837.2 70.3999 837.5 70.4999 837.8 70.4999C838.1 70.4999 838.4 70.3999 838.6 70.2999C838.7 70.2999 840.1 69.2999 842.1 67.5999L844.5 70.2999C844.5 70.3999 844.5 70.4999 844.5 70.6999C842.9 73.6999 838.6 82.2999 835.5 95.1999C833.9 102.1 832.8 109.4 832.4 116.9L801 107.3C801 107.3 801 107.3 800.9 107.3C800.9 107.3 800.8 107.3 800.7 107.3C800.6 107.3 800.6 107.3 800.5 107.3C800.5 107.3 800.5 107.3 800.4 107.3H789.6C789.3 107.3 789 107.4 788.7 107.6L779.1 114.3C778.5 114.7 778.3 115.4 778.6 116.1C778.9 116.8 779.5 117.1 780.2 117L792.7 115L794.4 115.8H788.9C788.4 115.8 788 116 787.7 116.4L787 117.2C786.9 117.1 786.7 117 786.6 116.9C785.8 116.6 785 117 784.7 117.7C783.5 120.7 783 122 782.8 122.5C782.6 122.8 782.5 123.1 782.5 123.4C782.5 124 782.8 124.6 783.3 124.9C783.5 125 783.7 125.1 784 125.1C784.6 125.1 785.1 124.8 785.3 124.3V124.2L789.5 118.9H800.2L832.2 136.8C833.6 162.8 839.1 185.5 842.5 191.9C842.7 192.3 843.2 192.6 843.6 192.7C843.7 192.7 844.9 192.9 847.3 193C850.2 202 872.9 272.1 871.1 295C869.6 296.2 864.9 300.2 860.3 303.7C858.9 303 858.4 302.8 858 302.8C857.2 302.8 856.5 303.5 856.5 304.3C856.5 305 857 305.5 857.6 305.7C856.6 306.5 855.6 307.2 854.6 307.8C853.6 307.3 852.2 306.6 851.7 306.4C850.9 306.1 850.1 306.6 849.8 307.3C849.5 308.1 849.9 308.9 850.7 309.2C850.8 309.2 851.1 309.4 851.5 309.6C851.4 309.7 851.3 309.7 851.2 309.8C850.4 310.3 849.3 310.7 848.2 311.2C847.8 311 847.4 310.8 847.1 310.7C846.1 310.2 845.7 310 845.4 309.9C844.6 309.6 843.8 310.1 843.5 310.8C843.2 311.6 843.6 312.4 844.4 312.7H844.5C839.9 314.6 835.6 316.1 835.5 316.1C835.4 316.1 835.4 316.2 835.3 316.2C834.7 316.6 831.5 318.4 831.7 321C831.8 322.1 832.5 323.1 833.9 323.8H810.6C809.8 323.8 809.1 324.5 809.1 325.3C809.1 326.1 809.8 326.8 810.6 326.8H918.8C919.6 326.8 920.3 326.1 920.3 325.3C920.3 324.5 919.9 323.8 919.1 323.8ZM872.4 109.8V171.2L850.6 164.1V102.6L872.4 109.8ZM915.3 155.2L915.4 159H911.6L910.5 155.2H915.3ZM903.6 178.7L908.5 174.5C908.7 174.3 908.9 174 909 173.7L911.8 162H915.5L915.8 178.7H903.6ZM851.2 54.1999C851.3 53.5999 851.4 53.2999 851.5 53.0999L855.1 56.3999C854.1 57.9999 851.6 61.2999 846.2 67.7999L844.2 65.4999C846 63.6999 847.5 61.8999 848.6 60.0999C850.7 57.1999 851 55.3999 851.2 54.1999ZM847.8 70.9999C847.9 70.8999 847.9 70.6999 848 70.5999C852.8 64.8999 855.9 60.8999 857.5 58.3999L860.9 61.4999L840.2 89.5999C843.6 77.8999 847.7 71.0999 847.8 70.9999ZM865 71.8999L859.8 72.3999C859.1 72.4999 858.6 72.9999 858.5 73.5999L857.7 77.6999L845.6 87.3999L863.6 62.9999L868.5 64.1999L865 71.8999ZM821.3 29.6999C824.8 25.2999 829.6 23.9999 829.7 23.9999C830 23.8999 830.3 23.6999 830.5 23.3999C830.6 23.2999 835.9 16.2999 842.8 15.2999C845.9 14.8999 848.9 15.6999 851.7 17.8999C851.8 17.9999 851.9 17.9999 852 18.0999C852.2 18.1999 868.1 25.7999 865.2 36.0999C862.6 45.3999 857 50.5999 855.2 52.1999L854.1 51.1999C855.6 49.9999 856.4 47.6999 856.3 44.8999C856.2 41.7999 854.8 38.1999 852.2 37.0999C851.3 36.6999 849.4 36.3999 847.3 38.2999C845.6 39.7999 843.3 41.3999 841.7 40.6999C839.2 39.5999 838.5 32.9999 838.6 29.8999C838.6 29.0999 838.1 28.4999 837.3 28.3999C836.5 28.2999 835.8 28.7999 835.6 29.4999C835.4 30.2999 833.4 37.0999 825.7 35.0999C825.2 34.9999 824.7 35.0999 824.4 35.3999C823.5 36.0999 822.3 39.4999 822.4 44.1999C820 39.9999 817.8 33.9999 821.3 29.6999ZM837.9 67.0999C835.2 64.8999 833.1 62.7999 831.5 60.6999C831.5 60.6999 831.5 60.6999 831.5 60.5999C831.4 60.3999 831.2 60.1999 831.1 60.0999C829.5 57.9999 828.2 55.6999 827.1 53.0999C827.1 52.8999 827 52.6999 826.9 52.5999C826.6 51.7999 826.4 51.1999 826.2 50.4999C826.2 50.3999 826.2 50.1999 826.1 50.0999C824.7 44.3999 825.6 40.0999 826.1 38.4999C828.8 38.9999 831.3 38.5999 833.4 37.2999C834.4 36.6999 835.2 35.9999 835.9 35.1999C836.4 38.4999 837.6 42.2999 840.4 43.4999C842.8 44.5999 845.8 43.6999 849.2 40.5999C849.9 39.9999 850.5 39.7999 851 39.9999C852 40.3999 853.1 42.4999 853.2 45.0999C853.3 46.9999 852.8 48.5999 851.9 49.0999C850.7 49.6999 849.9 50.3999 849.4 50.9999C848.7 51.8999 848.5 52.7999 848.3 53.5999C848.1 54.6999 847.8 56.0999 846.3 58.4999C845.2 60.2999 843.5 62.1999 841.6 64.0999C841.5 64.1999 841.4 64.1999 841.3 64.2999C841.2 64.3999 841.1 64.4999 841 64.6999C839.7 65.7999 838.6 66.5999 837.9 67.0999ZM793 111.8L786.5 112.9L790.3 110.2H800.4L832.3 120C832.3 121.2 832.2 122.4 832.2 123.6C832.2 126.8 832.3 130 832.4 133.1L801.6 115.9L793.9 112C793.6 111.8 793.3 111.8 793 111.8ZM850.9 193C858.6 193.3 874.7 193.3 894.6 189.4L888.4 231.9C888.3 232.3 888.5 232.7 888.7 233.1C898.3 244.8 889.9 275.9 885.4 292.7L884.9 294.4C879.8 295.8 876.1 295.1 874.4 294.6C876 271.1 855.1 205.8 850.9 193ZM837 318.9C837.9 318.6 843.5 316.6 848.5 314.4C850 315.2 851.3 316 851.3 316C851.5 316.1 851.8 316.2 852.1 316.2C852.6 316.2 853.1 315.9 853.4 315.5C853.8 314.8 853.6 313.9 852.9 313.4C852.9 313.4 852.5 313.2 852 312.8C852.4 312.6 852.7 312.5 853 312.3C853.8 311.9 854.4 311.5 855.1 311.1C856.5 311.8 857.6 312.5 857.6 312.5C857.8 312.6 858.1 312.7 858.3 312.7C858.8 312.7 859.3 312.4 859.6 311.9C860 311.2 859.7 310.3 859 309.9C859 309.9 858.6 309.7 857.9 309.3C858.9 308.6 859.9 307.9 860.9 307.1C862.6 308 864.2 309 864.2 309C864.4 309.1 864.7 309.2 865 309.2C865.5 309.2 866 308.9 866.3 308.5C866.7 307.8 866.5 306.9 865.8 306.4C865.7 306.4 864.8 305.8 863.6 305.1C867.7 301.9 871.7 298.6 873.3 297.3C874.4 297.7 876.5 298.2 879.3 298.2C880.7 298.2 882.3 298 884.1 297.7C883.8 298.7 883.6 299.6 883.4 300.4C882.4 304.6 882.7 307.2 883 310.3C883.3 313.2 883.7 316.6 882.9 322.2C881.6 323.5 872.5 323 865.3 321.6C864.5 321.5 863.3 321.7 861 322.1C855.8 323 846.2 324.7 837 321.7C835.5 321.2 835.2 320.7 835.2 320.7C835.1 320.4 836 319.5 837 318.9Z" fill="#3A3636"/>
<path d="M804.7 323.7H804.4C803.6 323.7 802.9 324.4 802.9 325.2C802.9 326 803.6 326.7 804.4 326.7H804.7C805.5 326.7 806.2 326 806.2 325.2C806.2 324.4 805.5 323.7 804.7 323.7Z" fill="#3A3636"/>
<path d="M928.1 323.4C927.3 323.4 926.6 324.1 926.6 324.9V325.2C926.6 326 927.3 326.7 928.1 326.7C928.9 326.7 929.6 326 929.6 325.2V324.9C929.6 324.1 928.9 323.4 928.1 323.4Z" fill="#3A3636"/>
<path d="M16.6 235.6C16.6 241.3 16.6 247 16.6 252.7C16.6 254.6 19.6 254.6 19.6 252.7C19.6 247 19.6 241.3 19.6 235.6C19.6 233.7 16.6 233.7 16.6 235.6Z" fill="#3A3636"/>
<path d="M23.9 254C25.8 254 25.8 251 23.9 251C22 251 22 254 23.9 254Z" fill="#3A3636"/>
<path d="M113.2 240.6C107.8 243.1 104.3 248.4 103.9 254.3C103.8 256.2 106.8 256.2 106.9 254.3C107.2 249.4 110.3 245.2 114.7 243.2C116.5 242.4 114.9 239.8 113.2 240.6Z" fill="#3A3636"/>
<path d="M106.5 262.5C108.4 262.5 108.4 259.5 106.5 259.5C104.6 259.5 104.6 262.5 106.5 262.5Z" fill="#3A3636"/>
<path d="M473.8 239.4C468 240.5 463.3 244.8 461.7 250.4C461.2 252.3 464.1 253.1 464.6 251.2C466 246.5 469.8 243.1 474.6 242.3C476.4 241.9 475.6 239 473.8 239.4Z" fill="#3A3636"/>
<path d="M462.6 258.8C464.5 258.8 464.5 255.8 462.6 255.8C460.6 255.8 460.6 258.8 462.6 258.8Z" fill="#3A3636"/>
<path d="M583.2 253C583.2 249.7 583.2 246.3 583.2 243C583.2 241.1 580.2 241.1 580.2 243C580.2 246.3 580.2 249.7 580.2 253C580.2 255 583.2 255 583.2 253Z" fill="#3A3636"/>
<path d="M581.7 238C583.6 238 583.6 235 581.7 235C579.8 235 579.8 238 581.7 238Z" fill="#3A3636"/>
<path d="M327.8 185C327.8 164.4 327.8 143.9 327.8 123.3C327.8 121.4 324.8 121.4 324.8 123.3C324.8 143.9 324.8 164.4 324.8 185C324.8 187 327.8 187 327.8 185Z" fill="#3A3636"/>
<path d="M325.9 115.4C327.8 115.4 327.8 112.4 325.9 112.4C323.9 112.4 323.9 115.4 325.9 115.4Z" fill="#3A3636"/>
<path d="M68.5 9.7998C68.5 26.6998 68.5 43.4998 68.5 60.3998C68.5 62.2998 71.5 62.2998 71.5 60.3998C71.5 43.4998 71.5 26.6998 71.5 9.7998C71.5 7.7998 68.5 7.7998 68.5 9.7998Z" fill="#3A3636"/>
<path d="M70 70C71.9 70 71.9 67 70 67C68.1 67 68.1 70 70 70Z" fill="#3A3636"/>
<path d="M11.1 146.9C11.1 138.5 11.1 130 11.1 121.6C11.1 119.7 8.09998 119.7 8.09998 121.6C8.09998 130 8.09998 138.5 8.09998 146.9C8.09998 148.8 11.1 148.8 11.1 146.9Z" fill="#3A3636"/>
<path d="M35.5 72.3C35.5 80 35.5 87.7 35.5 95.4C35.5 97.3 38.5 97.3 38.5 95.4C38.5 87.7 38.5 80 38.5 72.3C38.5 70.4 35.5 70.4 35.5 72.3Z" fill="#3A3636"/>
<path d="M553.9 173.7C555.8 173.7 555.8 170.7 553.9 170.7C551.9 170.7 551.9 173.7 553.9 173.7Z" fill="#3A3636"/>
<path d="M559.4 175C561.3 175 561.3 172 559.4 172C557.5 172 557.5 175 559.4 175Z" fill="#3A3636"/>
<path d="M565 175.4C566.9 175.4 566.9 172.4 565 172.4C563.1 172.4 563.1 175.4 565 175.4Z" fill="#3A3636"/>
<path d="M555.9 300.6C557.8 300.6 557.8 297.6 555.9 297.6C553.9 297.6 553.9 300.6 555.9 300.6Z" fill="#3A3636"/>
<path d="M393.1 300C395 300 395 297 393.1 297C391.2 297 391.2 300 393.1 300Z" fill="#3A3636"/>
<path d="M202.4 299.9C202.4 299.8 202.4 299.7 202.4 299.6C202.4 298.8 201.7 298.1 200.9 298.1C200.1 298.1 199.4 298.8 199.4 299.6C199.4 299.7 199.4 299.8 199.4 299.9C199.4 300.7 200.1 301.4 200.9 301.4C201.7 301.4 202.4 300.7 202.4 299.9Z" fill="#3A3636"/>
<path d="M37.4 301.4C39.3 301.4 39.3 298.4 37.4 298.4C35.5 298.4 35.5 301.4 37.4 301.4Z" fill="#3A3636"/>
<path d="M379.7 155.8C381.6 155.8 381.6 152.8 379.7 152.8C377.7 152.8 377.7 155.8 379.7 155.8Z" fill="#3A3636"/>
<path d="M437.1 208.8C445 202.9 454 199.2 463.8 197.7C465.7 197.4 464.9 194.5 463 194.8C453 196.3 443.8 200.2 435.6 206.2C434.1 207.3 435.6 209.9 437.1 208.8Z" fill="#3A3636"/>
<path d="M471.3 196.9C473.2 196.9 473.2 193.9 471.3 193.9C469.4 193.9 469.4 196.9 471.3 196.9Z" fill="#3A3636"/>
<path d="M384.4 56.0002C384.4 67.4002 384.4 78.9002 384.4 90.3002C384.4 92.2002 387.4 92.2002 387.4 90.3002C387.4 78.9002 387.4 67.4002 387.4 56.0002C387.4 54.1002 384.4 54.1002 384.4 56.0002Z" fill="#3A3636"/>
<path d="M386.7 110.7C409.6 110.7 432.4 110.7 455.3 110.7C457.2 110.7 457.2 107.7 455.3 107.7C432.4 107.7 409.6 107.7 386.7 107.7C384.8 107.7 384.8 110.7 386.7 110.7Z" fill="#3A3636"/>
<path d="M358 215.1C361.3 215.1 364.7 215.1 368 215.1C369.9 215.1 369.9 212.1 368 212.1C364.7 212.1 361.3 212.1 358 212.1C356.1 212.1 356.1 215.1 358 215.1Z" fill="#3A3636"/>
<path d="M357.1 208.5C360.9 208.5 364.7 208.5 368.5 208.5C370.4 208.5 370.4 205.5 368.5 205.5C364.7 205.5 360.9 205.5 357.1 205.5C355.2 205.5 355.2 208.5 357.1 208.5Z" fill="#3A3636"/>
<path d="M357.7 202.3C359.6 202.3 359.6 199.3 357.7 199.3C355.8 199.3 355.8 202.3 357.7 202.3Z" fill="#3A3636"/>
<path d="M328.9 205.8C277.2 205.8 225.5 205.8 173.8 205.8C171.9 205.8 171.9 208.8 173.8 208.8C225.5 208.8 277.2 208.8 328.9 208.8C330.8 208.8 330.8 205.8 328.9 205.8Z" fill="#3A3636"/>
<path d="M162.4 208.9C164.3 208.9 164.3 205.9 162.4 205.9C160.5 205.9 160.5 208.9 162.4 208.9Z" fill="#3A3636"/>
<path d="M506.3 210.5C520.9 210.5 535.4 210.5 550 210.5C551.9 210.5 551.9 207.5 550 207.5C535.4 207.5 520.9 207.5 506.3 207.5C504.4 207.5 504.4 210.5 506.3 210.5Z" fill="#3A3636"/>
<path d="M561.1 210.5C563 210.5 563 207.5 561.1 207.5C559.2 207.5 559.2 210.5 561.1 210.5Z" fill="#3A3636"/>
<path d="M931 148C937.4 148 943.9 148 950.3 148C952.2 148 952.2 145 950.3 145C943.9 145 937.4 145 931 145C929.1 145 929.1 148 931 148Z" fill="#3A3636"/>
<path d="M931 156.1C937.4 156.1 943.9 156.1 950.3 156.1C952.2 156.1 952.2 153.1 950.3 153.1C943.9 153.1 937.4 153.1 931 153.1C929.1 153.1 929.1 156.1 931 156.1Z" fill="#3A3636"/>
<path d="M931 164.3C937.4 164.3 943.9 164.3 950.3 164.3C952.2 164.3 952.2 161.3 950.3 161.3C943.9 161.3 937.4 161.3 931 161.3C929.1 161.3 929.1 164.3 931 164.3Z" fill="#3A3636"/>
</g>
<defs>
<clipPath id="clip0">
<rect width="960" height="327" fill="white"/>
</clipPath>
</defs>
</svg>
